<?xml version="1.0" encoding="UTF-8"?>
<svg id="Layer_1" data-name="Layer 1" xmlns="http://www.w3.org/2000/svg" viewBox="0 0 500 500">
  <defs>
    <style>
      .cls-1 {
        fill: #f8f7f7;
      }

      .cls-2 {
        fill: #f5aa20;
      }

      .cls-3 {
        fill: #f4f3f3;
      }

      .cls-4 {
        fill: #ec8d01;
      }

      .cls-5 {
        fill: #bc6088;
      }

      .cls-6 {
        fill: #b82a26;
      }

      .cls-7 {
        fill: #b62524;
      }

      .cls-8 {
        fill: #b62625;
      }

      .cls-9 {
        fill: #b72824;
      }

      .cls-10 {
        fill: #b72827;
      }

      .cls-11 {
        fill: #b72727;
      }

      .cls-12 {
        fill: #b92e2a;
      }

      .cls-13 {
        fill: #b52323;
      }

      .cls-14 {
        fill: #c2412e;
      }

      .cls-15 {
        fill: #0b0c0f;
      }

      .cls-16 {
        fill: #0b0c0e;
      }

      .cls-17 {
        fill: #070809;
      }
    </style>
  </defs>
  <g id="Fire">
    <path class="cls-13" d="M100.12,218.74c-9.48,18.14-16.89,37.03-20.22,57.32-9.43,57.49,1.11,109.17,45.31,150.32,22.11,20.59,49.15,32.48,77.92,40.76,3.97,1.14,7.83,2.65,11.75,4,2.11,1.41,4.21,2.81,6.92,4.62-3.77,1.35-6.79-.16-9.72-.78-39.63-8.48-75.66-24.02-103.73-54.41-27.26-29.51-39-64.99-39.06-104.71-.05-36.3,7.67-70.51,27.59-101.39,.46-.72,.98-1.41,2.21-3.16,.44,3.13,.74,5.28,1.04,7.43Z"/>
    <path class="cls-8" d="M234.11,24.71c-22.27,14.92-40.78,33.18-51.87,58.11-6.31,14.17-9.76,28.99-10.69,44.45-1.93,31.9,4.95,62.7,11.23,93.63,2.55,12.56,5.57,25.49-.87,37.9-4.22,8.14-9.68,15.12-19.42,17.12,18.09-13.6,17.78-32.05,13.78-51.62-4.91-24.08-10.42-48.05-11.98-72.72-3.55-55.83,18.29-98.52,65.66-128.18,1.4-.88,2.67-2.54,4.6-1.74,.23,.1-.28,1.99-.44,3.05Z"/>
    <path class="cls-7" d="M240.22,233.4c-3.05-3.52-4.44-7.85-5.95-12.28,9.58,5.07,16.73,12.87,23.62,20.76,24.01,27.48,34.43,60.39,37.84,96.06,1.1,11.53,1.99,23.12,4.04,34.5,4.37,24.28,10.41,31.63,35.54,30.05-17.9,8.88-34.24,2.01-39.49-17-4.51-16.36-4.64-33.38-6.67-50.1-4.5-37.06-16.86-70.54-43.26-97.86-1.63-1.69-2.9-3.96-5.66-4.12Z"/>
    <path class="cls-9" d="M146.63,362.54c-2.86-8.88-3.08-18.01-2.56-28.16,11.16,31.29,25.81,57.27,64.62,53.64-13.79,7.3-33.06,3.81-46.65-7.88-6.03-5.19-9.58-12.36-15.41-17.61Z"/>
    <path class="cls-11" d="M348.48,133.24c-.09,19.27-5.33,36.47-20.03,49.88-2.61,2.38-5.24,4.65-9.09,4.49,18.06-15.24,23.83-35.6,23.95-58.27,2.97,0,3.21,3.05,5.17,3.89Z"/>
    <path class="cls-10" d="M436.37,258.49c-.95,17.98-2.04,35.94-11.67,51.94-1.37,2.27-2.43,5.46-6.19,4.99,11.54-19.33,12.13-40.96,13.09-63.44,1.89,2.58,3.33,4.54,4.78,6.51Z"/>
    <path class="cls-6" d="M368.69,374.53c1.61-2.59,3.22-5.17,5.47-8.78,1.54,9.91-.29,18.47-2.11,26.95-2.63,12.29-7.53,23.66-15.27,33.67-1.4,1.81-2.49,4.32-5.55,3.82,11.54-16.76,17.76-35.19,17.46-55.66Z"/>
    <path class="cls-12" d="M287.35,473.31c18.2-.33,36.04-2.89,53.48-8.2,2.92-.89,5.9-1.6,8.84-2.39,.01,.51,.03,1.01,.04,1.51-21.8,9.17-44.61,13.11-69.46,13.6,3.09-1.97,5.09-3.25,7.1-4.53Z"/>
    <path class="cls-14" d="M349.71,464.23c-.01-.5-.03-1-.04-1.51,5.73-2.42,11.46-4.83,17.18-7.24-4.6,5.11-11.15,6.37-17.14,8.74Z"/>
    <path class="cls-9" d="M208.54,388.07c.82-1.35,2.29-1.02,3.49-1.37-1.17,.46-2.33,.92-3.49,1.37Z"/>
    <path class="cls-7" d="M335.22,402.53c.55-1.32,2.17-1.66,2.88-1.59-.55,.69-1.69,1.62-2.88,1.59Z"/>
    <path class="cls-4" d="M239.57,21.67c.48-.06,.96-.11,1.44-.17-.17,.44-.33,.88-.5,1.33-.31-.39-.62-.77-.93-1.16Z"/>
  </g>
  <path class="cls-4" d="M234.11,24.71l6.03-3.35,.65,.53c-5.48,17.92-11.64,35.66-14.39,54.31-3.74,25.31-4.31,50.47,6.1,74.5,10.58,24.42,28.36,40.22,55.58,43.97,11.39,1.57,21.61-1.36,31.28-7.05,3.85,.15,6.48-2.11,9.09-4.49,14.7-13.41,19.94-30.61,20.03-49.88,.36-1.23,.37-3.14,1.17-3.56,1.82-.96,2.47,1.2,3.34,2.24,18.16,21.83,24.74,47,21.21,74.95-2.63,20.8-10.97,40.13-15.74,60.39-2.12,8.99-3.77,17.99-2.52,27.35,3.73,28.06,36.34,42.16,59.2,25.48,1.59-1.16,3.05-2.54,3.37-4.67,3.76,.47,4.82-2.72,6.19-4.99,9.62-15.98,10.72-33.93,11.67-51.89,0-.03,0-.06,0-.1v-7.04c6.78,9.71,10.09,20.45,12.81,31.41,8.46,34.14,8.94,67.8-6.98,100.18-14.55,29.62-36.82,51.85-65.77,67.58-2.9,1.57-5.51,3.66-8.69,4.66-.58,.18-1.16,.36-1.73,.6-5.45,2.29-10.89,4.58-16.34,6.88-2.95,.79-5.92,1.5-8.84,2.39-17.44,5.3-35.28,7.87-53.48,8.2,6.49-3.02,13.03-5.96,19.46-9.09,14.94-7.28,28.73-16.23,40.35-28.25,1.65-1.71,3.61-3.22,4.07-5.77,3.06,.5,4.15-2,5.55-3.82,7.74-10.01,12.64-21.38,15.27-33.67,1.82-8.48,3.65-17.03,2.11-26.95l-5.47,8.78c-7.99,11.42-17.22,21.1-30.42,26.53-.04,.02-.43,.13-.55,.19-.36,.2-.57,.21-1.42,.83-.36,.27-.32,.23-1.03,.33-21.92,3.21-31.18-5.85-35.51-29.98-2.04-11.37-2.94-22.97-4.04-34.5-3.42-35.67-13.83-68.58-37.84-96.06-6.89-7.89-14.04-15.69-23.62-20.76,1.52,4.43,2.9,8.77,5.95,12.28-2.11,2.09,.38,3.54,.94,5.04,9.81,26.39,16.13,53.41,13.49,81.77-2.14,22.93-9.26,43.78-28.32,58.66-4.31,3.36-8.92,6.32-14.28,7.84-1.2,.36-2.68,.02-3.49,1.37,0,0,.15-.05,.15-.05-38.81,3.63-53.46-22.35-64.62-53.64-.52,10.15-.31,19.28,2.56,28.16-.2,10.98,3.38,21.16,7.09,31.19,12.58,33.99,37.31,56.98,68.15,74.32l6.67,3.72c-4.87,1.94-9.09-2.11-13.67-.62-3.91-1.34-7.78-2.85-11.75-4-28.76-8.28-55.8-20.17-77.92-40.76-44.2-41.15-54.74-92.84-45.31-150.32,3.33-20.29,10.74-39.18,20.22-57.32l6.71-9.48c.26,14.27,.8,27.06,4.03,39.53,.38,1.48,.79,2.95,1.24,4.41,7.5,24.09,27.32,33.02,50.38,22.7,9.73-2,15.2-8.98,19.42-17.12,6.44-12.41,3.42-25.34,.87-37.9-6.28-30.93-13.17-61.73-11.23-93.63,.94-15.46,4.38-30.28,10.69-44.45,11.09-24.93,29.6-43.18,51.87-58.11Z"/>
  <g>
    <path class="cls-16" d="M294.9,244.02c-10.55,11.84-24.6,17.3-39.47,20.74-6.43,1.49-4.99,4.43-2.64,7.82,20.82,30,30.2,64.22,36.61,99.47,.88,4.86,2.05,5.06,6.06,3.22,12.13-5.58,25.03-7.77,38.33-7.74,14.27,.03,28.49-.15,42.44-3.83,17.9-4.72,29.53-16.45,31.25-33.06,1.41-13.7-5.76-24.33-14.39-34.02-5.85-6.58-12.69-12.1-20.05-16.9-5.87-3.84-6.96-9.3-5.7-15.51,1.58-7.8,9.56-12.39,15.92-8.48,18.15,11.14,34.41,24.57,43.42,44.46,16.49,36.41-.24,73.65-38.51,87.06-14.71,5.16-29.9,6.51-45.32,6.24-10.07-.18-20.08-.05-30.22,2.46,18.67,22.47,12.89,47.22,8.23,71.91-1.28,6.78-4.97,9.85-11.75,11.77-65.73,18.55-125.14,7.3-177.63-36.91-11.93-10.05-23.76-20.91-32.8-33.68-3.33-4.72-.03-8.44,3.88-11.26,4.68-3.37,10.03-3.97,15.05-2.17,5.18,1.85,5.6-.09,6.1-4.42,4.03-34.28,11.89-67.54,27.35-98.68,4.58-9.21,10.25-17.73,16.87-26.51-10.95-2.89-21.52-5.59-30.65-11.58-4.18-2.75-9.83-4.29-10.94-10.39h168.55Z"/>
    <path class="cls-15" d="M304.56,217.01c0,39.24-44.21,52.71-95.84,52.71s-95.84-13.48-95.84-52.71,46.06-87.03,97.69-87.03,93.99,47.79,93.99,87.03Z"/>
    <path class="cls-15" d="M128.39,174.66c0-1.06-5.78-25.33-10.7-51.28-.62-3.28,1.81-6.36,5.15-6.5,10.11-.42,31.21,1.44,53.65,19.96l-48.09,37.82Z"/>
    <path class="cls-15" d="M290,174.43c0-1.06,4.82-25.1,9.74-51.06,.63-3.3-1.83-6.36-5.19-6.5-10.13-.42-31.2,1.46-53.61,19.96l49.05,37.6Z"/>
    <path class="cls-2" d="M145.54,196.52c1.31-6.35,8.32-12.01,22.14-12.01,12.26,0,22.25,18.02,22.25,25.44,0,7.41-17.25,5.22-23.6,4.33-11.87-1.66-22.09-11.44-20.79-17.76Z"/>
    <ellipse class="cls-17" cx="169.31" cy="199.67" rx="10.81" ry="15.23"/>
    <circle class="cls-3" cx="163.26" cy="196.15" r="2.98"/>
    <circle class="cls-1" cx="176" cy="205.33" r="1.99"/>
    <path class="cls-5" d="M199.74,218.06h15.97c.89,0,1.32,1.09,.68,1.7l-6.09,5.77c-1.45,1.37-3.71,1.37-5.16,0l-6.08-5.76c-.65-.62-.21-1.71,.68-1.71Z"/>
    <path class="cls-15" d="M290.2,372.73c9.77,64.6-42.56,118.65-84.64,107.45-37.19-9.9-89.45-46.81-80.19-111.49,7.95-55.57,38.82-120.19,82.36-120.19s74.73,73.02,82.47,124.22Z"/>
    <g>
      <path class="cls-2" d="M272.12,196.71c-1.31-6.35-8.32-12.01-22.14-12.01-12.26,0-22.25,18.02-22.25,25.44s17.25,5.22,23.6,4.33c11.87-1.66,22.09-11.44,20.79-17.76Z"/>
      <ellipse class="cls-17" cx="248.36" cy="199.86" rx="10.81" ry="15.23"/>
      <circle class="cls-3" cx="242.13" cy="196.34" r="2.98"/>
      <circle class="cls-1" cx="255.44" cy="205.92" r="1.99"/>
    </g>
  </g>
</svg>