<?xml version="1.0" encoding="UTF-8"?>
<svg id="Layer_1" data-name="Layer 1" xmlns="http://www.w3.org/2000/svg" viewBox="0 0 23.59 24.15">
  <defs>
    <style>
      .cls-1 {
        fill: #f2981f;
      }
    </style>
  </defs>
  <path class="cls-1" d="M11.92,24.15c-.12-1.11-.24-2.93-.55-4.71-.6-3.52-3.35-6.26-6.87-6.86-1.53-.26-3.09-.35-4.5-.51,.8-.06,1.74-.16,2.69-.2,2.2-.11,4.2-.72,5.88-2.21,1.63-1.45,2.67-3.22,2.92-5.39,.19-1.65,.32-3.32,.41-4.26,.09,1.02,.21,2.75,.42,4.47,.43,3.5,3.5,6.79,7.44,7.25,1.39,.16,2.79,.25,3.81,.34-1.37,.17-3.11,.27-4.8,.64-3.64,.79-6.39,4.18-6.59,7.89-.08,1.42-.21,2.84-.27,3.56Z"/>
</svg>